name rise30.6535peak61.5555fall82.9339.mot
datacolumns 19
datarows 24
range 15.16993500000000 15.20827000000000
endheader
time	ground_force1_vx	ground_force1_vy	ground_force1_vz	ground_force1_px	ground_force1_py	ground_force1_pz	ground_force2_vx	ground_force2_vy	ground_force2_vz	ground_force2_px	ground_force2_py	ground_force2_pz	ground_torque1_x	ground_torque1_y	ground_torque1_z	ground_torque2_x	ground_torque2_y	ground_torque2_z	
15.16993500000000	17.40093600000000	713.81799500000000	38.51272500000000	0.27495700000000	0.00000000000000	0.09468400000000	0.00000000000000	0.00000000000000	0.00000000000000	0.00000000000000	0.00000000000000	0.00000000000000	0.00000000000000	18.46204600000000	0.00000000000000	0.00000000000000	0.00000000000000	0.00000000000000	
15.17161400000000	16.95945900000000	714.22188400000005	38.45304100000000	0.27417700000000	0.00000000000000	0.09457800000000	0.00000000000000	0.00000000000000	0.00000000000000	0.00000000000000	0.00000000000000	0.00000000000000	0.00000000000000	18.49658700000000	0.00000000000000	0.00000000000000	0.00000000000000	0.00000000000000	
15.17327200000000	16.50927700000000	714.64757899999995	38.39441100000000	0.27340100000000	0.00000000000000	0.09447200000000	0.00000000000000	0.00000000000000	0.00000000000000	0.00000000000000	0.00000000000000	0.00000000000000	0.00000000000000	18.53391600000000	0.00000000000000	0.00000000000000	0.00000000000000	0.00000000000000	
15.17493800000000	16.05048000000000	715.09493099999997	38.33685300000000	0.27262700000000	0.00000000000000	0.09436600000000	0.00000000000000	0.00000000000000	0.00000000000000	0.00000000000000	0.00000000000000	0.00000000000000	0.00000000000000	18.57397000000000	0.00000000000000	0.00000000000000	0.00000000000000	0.00000000000000	
15.17661600000000	15.58317600000000	715.56383700000004	38.28038900000000	0.27185500000000	0.00000000000000	0.09426100000000	0.00000000000000	0.00000000000000	0.00000000000000	0.00000000000000	0.00000000000000	0.00000000000000	0.00000000000000	18.61668400000000	0.00000000000000	0.00000000000000	0.00000000000000	0.00000000000000	
15.17827200000000	15.10749300000000	716.05424200000004	38.22504600000000	0.27108500000000	0.00000000000000	0.09415700000000	0.00000000000000	0.00000000000000	0.00000000000000	0.00000000000000	0.00000000000000	0.00000000000000	0.00000000000000	18.66199300000000	0.00000000000000	0.00000000000000	0.00000000000000	0.00000000000000	
15.17993500000000	14.62357600000000	716.56613300000004	38.17085600000000	0.27031600000000	0.00000000000000	0.09405300000000	0.00000000000000	0.00000000000000	0.00000000000000	0.00000000000000	0.00000000000000	0.00000000000000	0.00000000000000	18.70983100000000	0.00000000000000	0.00000000000000	0.00000000000000	0.00000000000000	
15.18160600000000	14.13158700000000	717.09954400000004	38.11785600000000	0.26954800000000	0.00000000000000	0.09395100000000	0.00000000000000	0.00000000000000	0.00000000000000	0.00000000000000	0.00000000000000	0.00000000000000	0.00000000000000	18.76012900000000	0.00000000000000	0.00000000000000	0.00000000000000	0.00000000000000	
15.18327500000000	13.63170700000000	717.65455099999997	38.06608500000000	0.26878000000000	0.00000000000000	0.09384900000000	0.00000000000000	0.00000000000000	0.00000000000000	0.00000000000000	0.00000000000000	0.00000000000000	0.00000000000000	18.81281800000000	0.00000000000000	0.00000000000000	0.00000000000000	0.00000000000000	
15.18494300000000	13.12413400000000	718.23126800000000	38.01558900000000	0.26801200000000	0.00000000000000	0.09374700000000	0.00000000000000	0.00000000000000	0.00000000000000	0.00000000000000	0.00000000000000	0.00000000000000	0.00000000000000	18.86782800000000	0.00000000000000	0.00000000000000	0.00000000000000	0.00000000000000	
15.18660700000000	12.60908300000000	718.82984999999996	37.96641800000000	0.26724400000000	0.00000000000000	0.09364700000000	0.00000000000000	0.00000000000000	0.00000000000000	0.00000000000000	0.00000000000000	0.00000000000000	0.00000000000000	18.92508700000000	0.00000000000000	0.00000000000000	0.00000000000000	0.00000000000000	
15.18827300000000	12.08678600000000	719.45048399999996	37.91862400000000	0.26647400000000	0.00000000000000	0.09354800000000	0.00000000000000	0.00000000000000	0.00000000000000	0.00000000000000	0.00000000000000	0.00000000000000	0.00000000000000	18.98452300000000	0.00000000000000	0.00000000000000	0.00000000000000	0.00000000000000	
15.18993900000000	11.55749000000000	720.09339299999999	37.87226400000000	0.26570200000000	0.00000000000000	0.09344900000000	0.00000000000000	0.00000000000000	0.00000000000000	0.00000000000000	0.00000000000000	0.00000000000000	0.00000000000000	19.04606100000000	0.00000000000000	0.00000000000000	0.00000000000000	0.00000000000000	
15.19160300000000	11.02145900000000	720.75882799999999	37.82739900000000	0.26492900000000	0.00000000000000	0.09335200000000	0.00000000000000	0.00000000000000	0.00000000000000	0.00000000000000	0.00000000000000	0.00000000000000	0.00000000000000	19.10962600000000	0.00000000000000	0.00000000000000	0.00000000000000	0.00000000000000	
15.19327000000000	10.47897000000000	721.44706499999995	37.78409300000000	0.26415300000000	0.00000000000000	0.09325600000000	0.00000000000000	0.00000000000000	0.00000000000000	0.00000000000000	0.00000000000000	0.00000000000000	0.00000000000000	19.17514100000000	0.00000000000000	0.00000000000000	0.00000000000000	0.00000000000000	
15.19493600000000	9.93031700000000	722.15840500000002	37.74241300000000	0.26337300000000	0.00000000000000	0.09316000000000	0.00000000000000	0.00000000000000	0.00000000000000	0.00000000000000	0.00000000000000	0.00000000000000	0.00000000000000	19.24253000000000	0.00000000000000	0.00000000000000	0.00000000000000	0.00000000000000	
15.19660700000000	9.37580600000000	722.89316599999995	37.70242900000000	0.26259100000000	0.00000000000000	0.09306600000000	0.00000000000000	0.00000000000000	0.00000000000000	0.00000000000000	0.00000000000000	0.00000000000000	0.00000000000000	19.31171300000000	0.00000000000000	0.00000000000000	0.00000000000000	0.00000000000000	
15.19827600000000	8.81575900000000	723.65168100000005	37.66421300000000	0.26180400000000	0.00000000000000	0.09297300000000	0.00000000000000	0.00000000000000	0.00000000000000	0.00000000000000	0.00000000000000	0.00000000000000	0.00000000000000	19.38261000000000	0.00000000000000	0.00000000000000	0.00000000000000	0.00000000000000	
15.19994100000000	8.25050700000000	724.43429500000002	37.62784300000000	0.26101200000000	0.00000000000000	0.09288100000000	0.00000000000000	0.00000000000000	0.00000000000000	0.00000000000000	0.00000000000000	0.00000000000000	0.00000000000000	19.45513900000000	0.00000000000000	0.00000000000000	0.00000000000000	0.00000000000000	
15.20160300000000	7.68039500000000	725.24135600000000	37.59339500000000	0.26021600000000	0.00000000000000	0.09279000000000	0.00000000000000	0.00000000000000	0.00000000000000	0.00000000000000	0.00000000000000	0.00000000000000	0.00000000000000	19.52921900000000	0.00000000000000	0.00000000000000	0.00000000000000	0.00000000000000	
15.20327300000000	7.10578200000000	726.07321700000000	37.56095000000000	0.25941500000000	0.00000000000000	0.09270100000000	0.00000000000000	0.00000000000000	0.00000000000000	0.00000000000000	0.00000000000000	0.00000000000000	0.00000000000000	19.60476600000000	0.00000000000000	0.00000000000000	0.00000000000000	0.00000000000000	
15.20494000000000	6.52703300000000	726.93022800000006	37.53059100000000	0.25860800000000	0.00000000000000	0.09261200000000	0.00000000000000	0.00000000000000	0.00000000000000	0.00000000000000	0.00000000000000	0.00000000000000	0.00000000000000	19.68169300000000	0.00000000000000	0.00000000000000	0.00000000000000	0.00000000000000	
15.20660100000000	5.94452600000000	727.81273099999999	37.50240000000000	0.25779500000000	0.00000000000000	0.09252500000000	0.00000000000000	0.00000000000000	0.00000000000000	0.00000000000000	0.00000000000000	0.00000000000000	0.00000000000000	19.75991600000000	0.00000000000000	0.00000000000000	0.00000000000000	0.00000000000000	
15.20827000000000	5.35864600000000	728.72105599999998	37.47646500000000	0.25697500000000	0.00000000000000	0.09243900000000	0.00000000000000	0.00000000000000	0.00000000000000	0.00000000000000	0.00000000000000	0.00000000000000	0.00000000000000	19.83934500000000	0.00000000000000	0.00000000000000	0.00000000000000	0.00000000000000	
